<svg width="20" height="18" viewBox="0 0 20 18" fill="none" xmlns="http://www.w3.org/2000/svg">
<path d="M9.0049 17.9997C9.0049 17.1712 8.3333 16.4997 7.50488 16.4997C6.67646 16.4997 6.00488 17.1712 6.00488 17.9997H1.00488C0.452603 17.9997 0.00488281 17.5519 0.00488281 16.9997V0.999634C0.00488281 0.447354 0.452603 -0.000366211 1.00488 -0.000366211H6.00488C6.00488 0.828064 6.67646 1.49963 7.50488 1.49963C8.3333 1.49963 9.0049 0.828064 9.0049 -0.000366211H19.0049C19.5572 -0.000366211 20.0049 0.447354 20.0049 0.999634V6.49963C18.6242 6.49963 17.5049 7.61897 17.5049 8.99967C17.5049 10.3804 18.6242 11.4997 20.0049 11.4997V16.9997C20.0049 17.5519 19.5572 17.9997 19.0049 17.9997H9.0049ZM7.50488 7.49967C8.3333 7.49967 9.0049 6.82806 9.0049 5.99963C9.0049 5.17121 8.3333 4.49963 7.50488 4.49963C6.67646 4.49963 6.00488 5.17121 6.00488 5.99963C6.00488 6.82806 6.67646 7.49967 7.50488 7.49967ZM7.50488 13.4997C8.3333 13.4997 9.0049 12.8281 9.0049 11.9997C9.0049 11.1712 8.3333 10.4997 7.50488 10.4997C6.67646 10.4997 6.00488 11.1712 6.00488 11.9997C6.00488 12.8281 6.67646 13.4997 7.50488 13.4997Z" fill="white"/>
</svg>
