<svg width="80" height="48" viewBox="0 0 80 48" fill="none" xmlns="http://www.w3.org/2000/svg">
<path d="M16.6005 43H15.2205V34.6H21.8325V43H20.4525V35.824H16.6005V43ZM26.641 36.784C28.321 36.784 29.545 37.96 29.545 39.928C29.545 41.824 28.321 43.072 26.641 43.072C25.693 43.072 25.033 42.688 24.649 42.136V45.4H23.353V36.856H24.481L24.637 37.768C25.045 37.228 25.681 36.784 26.641 36.784ZM26.425 41.98C27.505 41.98 28.225 41.128 28.225 39.928C28.225 38.716 27.505 37.888 26.425 37.888C25.345 37.888 24.637 38.716 24.637 39.904C24.637 41.128 25.345 41.98 26.425 41.98ZM33.6075 43.072C31.7355 43.072 30.4755 41.812 30.4755 39.928C30.4755 38.056 31.7355 36.784 33.6075 36.784C35.4795 36.784 36.7395 38.056 36.7395 39.928C36.7395 41.812 35.4795 43.072 33.6075 43.072ZM33.6075 41.968C34.6995 41.968 35.4195 41.116 35.4195 39.928C35.4195 38.74 34.6995 37.888 33.6075 37.888C32.5155 37.888 31.8075 38.74 31.8075 39.928C31.8075 41.116 32.5155 41.968 33.6075 41.968ZM42.4136 45.4H41.1416V43.048C39.0176 42.976 37.6736 41.788 37.6736 39.928C37.6736 38.092 39.0296 36.892 41.1416 36.808V34.792H42.4136V36.808C44.5376 36.892 45.8816 38.068 45.8816 39.928C45.8816 41.764 44.5256 42.976 42.4136 43.048V45.4ZM41.1536 41.956V37.9C39.8096 37.948 38.9816 38.704 38.9816 39.928C38.9816 41.164 39.8096 41.908 41.1536 41.956ZM42.4016 37.9V41.956C43.7576 41.908 44.5616 41.164 44.5616 39.928C44.5616 38.704 43.7576 37.948 42.4016 37.9ZM48.1731 43H47.0451V36.856H48.3051V41.116L51.6171 36.856H52.7571V43H51.4971V38.728L48.1731 43ZM53.9694 43H53.5494V41.86H53.7654C54.4014 41.86 54.6534 41.464 54.6534 39.808V36.856H59.5374V43H58.2414V37.996H55.8774V39.856C55.8774 42.292 55.2534 43 53.9694 43ZM63.7457 43H60.9257V36.856H62.2217V38.764H63.7457C65.2937 38.764 66.1937 39.556 66.1937 40.888C66.1937 42.208 65.2937 43 63.7457 43ZM62.2217 39.796V41.968H63.5297C64.4057 41.968 64.8737 41.572 64.8737 40.888C64.8737 40.168 64.4057 39.796 63.5297 39.796H62.2217Z" fill="#C61F1F"/>
<rect x="36" y="4" width="8" height="8" rx="4" fill="#C61F1F" stroke="#C61F1F" stroke-width="2"/>
<mask id="path-3-inside-1_949_25973" fill="white">
<rect x="31" y="16" width="18" height="9" rx="1"/>
</mask>
<rect x="31" y="16" width="18" height="9" rx="1" fill="#C61F1F" stroke="#C61F1F" stroke-width="4" mask="url(#path-3-inside-1_949_25973)"/>
</svg>
